<svg width="8" height="8" viewBox="0 0 8 8" fill="none" xmlns="http://www.w3.org/2000/svg">
<g clip-path="url(#clip0_11_267)">
<path fill-rule="evenodd" clip-rule="evenodd" d="M4.00005 0.333332C4.12692 0.333332 4.2428 0.405356 4.29895 0.519124L5.25147 2.44882L7.38159 2.76017C7.50711 2.77852 7.61134 2.86652 7.65047 2.98719C7.68959 3.10786 7.65683 3.24027 7.56596 3.32878L6.02489 4.82979L6.38859 6.95032C6.41004 7.07538 6.35862 7.20177 6.25596 7.27635C6.1533 7.35093 6.0172 7.36075 5.9049 7.30169L4.00005 6.29995L2.0952 7.30169C1.9829 7.36075 1.8468 7.35093 1.74414 7.27635C1.64148 7.20177 1.59006 7.07538 1.61151 6.95032L1.97521 4.82979L0.434139 3.32878C0.343267 3.24027 0.310509 3.10786 0.349635 2.98719C0.388761 2.86652 0.492988 2.77852 0.618508 2.76017L2.74863 2.44882L3.70115 0.519124C3.7573 0.405356 3.87318 0.333332 4.00005 0.333332ZM4.00005 1.41975L3.26895 2.90087C3.22044 2.99916 3.12671 3.06731 3.01826 3.08316L1.38285 3.3222L2.56596 4.47455C2.64459 4.55113 2.68047 4.6615 2.66192 4.76968L2.38278 6.39722L3.8449 5.62831C3.94203 5.57723 4.05807 5.57723 4.1552 5.62831L5.61732 6.39722L5.33818 4.76968C5.31963 4.6615 5.35552 4.55113 5.43414 4.47455L6.61725 3.3222L4.98184 3.08316C4.87339 3.06731 4.77966 2.99916 4.73115 2.90087L4.00005 1.41975Z" fill="#F2994A"/>
</g>
<path d="M2.33333 5L1 3L3 2.66667L4 1L5 2.66667L7 3.33333L5.66667 4.66667L6 7L4 6L2 7L2.33333 5Z" fill="#F2994A"/>
<defs>
<clipPath id="clip0_11_267">
<rect width="8" height="8" fill="white"/>
</clipPath>
</defs>
</svg>
